<?xml version="1.0" encoding="utf-8"?>
<!-- Generator: Adobe Illustrator 28.0.0, SVG Export Plug-In . SVG Version: 6.00 Build 0)  -->
<svg version="1.1" id="图层_1" xmlns="http://www.w3.org/2000/svg" xmlns:xlink="http://www.w3.org/1999/xlink" x="0px" y="0px"
	 viewBox="0 0 48 48" style="enable-background:new 0 0 48 48;" xml:space="preserve">
<style type="text/css">
	.st0{fill:#193355;}
	.st1{fill:url(#SVGID_1_);}
	.st2{fill:url(#SVGID_00000183971133894588557380000016154012807806798245_);}
	.st3{fill:url(#SVGID_00000142879937470118605690000005763445507690412447_);}
	.st4{fill:none;}
	.st5{fill:url(#SVGID_00000170247656337793610010000013131410894257996423_);}
</style>
<g>
	<polygon class="st0" points="11,22.9 6.1,22.9 6.6,17.5 3,17.5 1.5,31.8 5.1,31.8 5.7,25.9 10.7,25.9 	"/>
	<polygon class="st0" points="30.3,17.5 27.6,21.2 25.8,17.5 21.8,17.5 25.3,24.5 20.1,31.8 23.9,31.8 26.8,27.7 29.2,24.4 
		34.1,17.5 	"/>
	<polygon class="st0" points="34.1,17.5 33.8,20.4 37.9,20.4 36.7,31.8 40.3,31.8 41.8,17.5 	"/>
	<linearGradient id="SVGID_1_" gradientUnits="userSpaceOnUse" x1="42.1119" y1="18.9398" x2="46.5" y2="18.9398">
		<stop  offset="0" style="stop-color:#1F9FFD"/>
		<stop  offset="0.132" style="stop-color:#24A2FD"/>
		<stop  offset="0.2894" style="stop-color:#33AAFD"/>
		<stop  offset="0.4598" style="stop-color:#4BB8FD"/>
		<stop  offset="0.6382" style="stop-color:#6CCBFE"/>
		<stop  offset="0.6899" style="stop-color:#77D1FE"/>
		<stop  offset="0.8087" style="stop-color:#93E1FE"/>
		<stop  offset="1" style="stop-color:#C7FFFF"/>
	</linearGradient>
	<polygon class="st1" points="42.4,17.5 42.1,20.4 46.2,20.4 46.5,17.5 	"/>
	<g>
		
			<linearGradient id="SVGID_00000132773650644273527690000009258635241589375900_" gradientUnits="userSpaceOnUse" x1="27.1898" y1="28.4406" x2="32.8776" y2="28.4406">
			<stop  offset="0" style="stop-color:#1F9FFD"/>
			<stop  offset="0.132" style="stop-color:#24A2FD"/>
			<stop  offset="0.2894" style="stop-color:#33AAFD"/>
			<stop  offset="0.4598" style="stop-color:#4BB8FD"/>
			<stop  offset="0.6382" style="stop-color:#6CCBFE"/>
			<stop  offset="0.6899" style="stop-color:#77D1FE"/>
			<stop  offset="0.8087" style="stop-color:#93E1FE"/>
			<stop  offset="1" style="stop-color:#C7FFFF"/>
		</linearGradient>
		<polygon style="fill:url(#SVGID_00000132773650644273527690000009258635241589375900_);" points="29.6,25.1 27.2,28.4 28.8,31.8 
			32.9,31.8 		"/>
	</g>
	
		<linearGradient id="SVGID_00000049902161691306174810000000890974999676468381_" gradientUnits="userSpaceOnUse" x1="3.6603" y1="35.1492" x2="35.7747" y2="35.1492">
		<stop  offset="0" style="stop-color:#1F9FFD"/>
		<stop  offset="0.132" style="stop-color:#24A2FD"/>
		<stop  offset="0.2894" style="stop-color:#33AAFD"/>
		<stop  offset="0.4598" style="stop-color:#4BB8FD"/>
		<stop  offset="0.6382" style="stop-color:#6CCBFE"/>
		<stop  offset="0.6899" style="stop-color:#77D1FE"/>
		<stop  offset="0.8087" style="stop-color:#93E1FE"/>
		<stop  offset="1" style="stop-color:#C7FFFF"/>
	</linearGradient>
	<path style="fill:url(#SVGID_00000049902161691306174810000000890974999676468381_);" d="M35.7,32.7l0-0.4
		c-2.7,1.6-5.8,2.8-8.7,3.6c-6.4,1.6-13.9,1.9-19.7-1.6c-0.7-0.5-1.4-1-2-1.6H3.7c1.6,2,3.9,3.3,6.2,4.1c7.6,2.5,16.6,0.7,23.6-2.8
		C34.3,33.6,35,33.2,35.7,32.7L35.7,32.7z"/>
	<path class="st0" d="M7.4,18.5c3.6-3.4,8.5-5.7,13.1-6.9c6.4-1.6,14-1.9,19.8,1.6c1.4,0.9,2.6,2.1,3.4,3.5h0.1
		c-1.8-3.5-6-5.3-9.8-6.1c-8.5-1.6-18.5,0.6-25.5,5.7c-0.3,0.2-0.6,0.5-0.9,0.7L7.4,18.5z"/>
	<path class="st0" d="M44.6,21.3c-0.2,1.2-0.6,2.5-1.2,3.6c-0.5,0.9-1.1,1.7-1.7,2.5l0,0.4c0.5-0.6,1-1.3,1.5-2.1
		c0.8-1.3,1.4-2.8,1.6-4.4H44.6z"/>
	<polygon class="st4" points="14.3,31.8 14.9,26.3 14.9,26.3 	"/>
	<polygon class="st0" points="21.5,20.4 21.8,17.5 12.2,17.5 10.7,31.8 14.3,31.8 14.9,26.3 14.9,26.3 15.5,20.4 	"/>
	
		<linearGradient id="SVGID_00000132078721217154476510000003753843703425723549_" gradientUnits="userSpaceOnUse" x1="15.4858" y1="24.9135" x2="20.9289" y2="24.9135">
		<stop  offset="0" style="stop-color:#1F9FFD"/>
		<stop  offset="0.132" style="stop-color:#24A2FD"/>
		<stop  offset="0.2894" style="stop-color:#33AAFD"/>
		<stop  offset="0.4598" style="stop-color:#4BB8FD"/>
		<stop  offset="0.6382" style="stop-color:#6CCBFE"/>
		<stop  offset="0.6899" style="stop-color:#77D1FE"/>
		<stop  offset="0.8087" style="stop-color:#93E1FE"/>
		<stop  offset="1" style="stop-color:#C7FFFF"/>
	</linearGradient>
	<polygon style="fill:url(#SVGID_00000132078721217154476510000003753843703425723549_);" points="15.5,26.3 20.6,26.3 20.9,23.5 
		15.8,23.5 	"/>
</g>
</svg>
