<?xml version="1.0" encoding="utf-8"?>
<!-- Generator: Adobe Illustrator 28.0.0, SVG Export Plug-In . SVG Version: 6.00 Build 0)  -->
<svg version="1.1" id="图层_1" xmlns="http://www.w3.org/2000/svg" xmlns:xlink="http://www.w3.org/1999/xlink" x="0px" y="0px"
	 viewBox="0 0 80.1 80" style="enable-background:new 0 0 80.1 80;" xml:space="preserve">
<style type="text/css">
	.st0{fill:#FFFFFF;stroke:#FFFFFF;stroke-width:2.475;stroke-linecap:round;}
	.st1{fill:#2F2F2F;}
	.st2{fill:url(#SVGID_1_);}
	.st3{fill:url(#SVGID_00000048465928332090825560000010470452832110256047_);}
	.st4{fill:url(#SVGID_00000018922520905286938390000007573176317296549299_);}
	.st5{fill:none;}
	.st6{fill:url(#SVGID_00000181782668132629885700000017830795693717838213_);}
</style>
<rect x="1.2" y="1.2" class="st0" width="77.6" height="77.5"/>
<g>
	<polygon class="st1" points="18.3,38.2 9.9,38.2 10.9,29.1 4.8,29.1 2.3,53.1 8.4,53.1 9.4,43.2 17.7,43.2 	"/>
	<polygon class="st1" points="50.6,29.1 46.2,35.3 43.1,29.1 36.4,29.1 42.2,40.9 33.4,53.1 39.9,53.1 44.8,46.2 48.8,40.6 57,29.1 
			"/>
	<polygon class="st1" points="57,29.1 56.5,33.9 63.3,33.9 61.3,53.1 67.4,53.1 69.9,29.1 	"/>
	<linearGradient id="SVGID_1_" gradientUnits="userSpaceOnUse" x1="70.4377" y1="31.51" x2="77.8" y2="31.51">
		<stop  offset="0" style="stop-color:#838383"/>
		<stop  offset="0.1713" style="stop-color:#888888"/>
		<stop  offset="0.3755" style="stop-color:#969696"/>
		<stop  offset="0.5957" style="stop-color:#AEAEAE"/>
		<stop  offset="0.6899" style="stop-color:#BBBBBB"/>
		<stop  offset="0.867" style="stop-color:#D7D7D7"/>
		<stop  offset="1" style="stop-color:#EEEEEE"/>
	</linearGradient>
	<polygon class="st2" points="70.9,29.1 70.4,33.9 77.3,33.9 77.8,29.1 	"/>
	<g>
		
			<linearGradient id="SVGID_00000070840385799611801620000014672649585242118569_" gradientUnits="userSpaceOnUse" x1="45.4018" y1="47.4504" x2="54.9447" y2="47.4504">
			<stop  offset="0" style="stop-color:#838383"/>
			<stop  offset="0.1713" style="stop-color:#888888"/>
			<stop  offset="0.3755" style="stop-color:#969696"/>
			<stop  offset="0.5957" style="stop-color:#AEAEAE"/>
			<stop  offset="0.6899" style="stop-color:#BBBBBB"/>
			<stop  offset="0.867" style="stop-color:#D7D7D7"/>
			<stop  offset="1" style="stop-color:#EEEEEE"/>
		</linearGradient>
		<polygon style="fill:url(#SVGID_00000070840385799611801620000014672649585242118569_);" points="49.4,41.8 45.4,47.4 48.2,53.1 
			54.9,53.1 		"/>
	</g>
	
		<linearGradient id="SVGID_00000114044730357360653150000015183754333147642524_" gradientUnits="userSpaceOnUse" x1="5.9245" y1="58.7059" x2="59.8054" y2="58.7059">
		<stop  offset="0" style="stop-color:#838383"/>
		<stop  offset="0.1713" style="stop-color:#888888"/>
		<stop  offset="0.3755" style="stop-color:#969696"/>
		<stop  offset="0.5957" style="stop-color:#AEAEAE"/>
		<stop  offset="0.6899" style="stop-color:#BBBBBB"/>
		<stop  offset="0.867" style="stop-color:#D7D7D7"/>
		<stop  offset="1" style="stop-color:#EEEEEE"/>
	</linearGradient>
	<path style="fill:url(#SVGID_00000114044730357360653150000015183754333147642524_);" d="M59.6,54.6l0.1-0.7
		C55.1,56.7,50,58.6,45,60c-10.7,2.7-23.4,3.2-33.1-2.7c-1.2-0.8-2.4-1.7-3.4-2.7H5.9c2.6,3.3,6.5,5.6,10.5,6.9
		c12.8,4.2,27.9,1.3,39.6-4.8c1.3-0.7,2.5-1.4,3.8-2.2H59.6z"/>
	<path class="st1" d="M12.2,30.8c6-5.8,14.2-9.5,22-11.7c10.7-2.7,23.4-3.3,33.1,2.6c2.3,1.5,4.4,3.5,5.7,5.9h0.2
		c-3.1-5.9-10.1-8.9-16.5-10.2c-14.3-2.7-31,0.9-42.8,9.5c-0.5,0.4-1.1,0.8-1.6,1.2L12.2,30.8z"/>
	<path class="st1" d="M74.6,35.4c-0.3,2.1-1,4.1-2,6c-0.8,1.5-1.8,2.9-2.9,4.2l-0.1,0.7c0.9-1.1,1.7-2.2,2.5-3.4
		c1.4-2.2,2.3-4.7,2.7-7.3H74.6z"/>
	<polygon class="st5" points="23.8,53.1 24.8,43.9 24.8,43.9 	"/>
	<polygon class="st1" points="35.9,33.9 36.4,29.1 20.2,29.1 17.7,53.1 23.8,53.1 24.8,43.9 24.8,43.9 25.8,33.9 	"/>
	
		<linearGradient id="SVGID_00000003082735955399451020000000270474098152607423_" gradientUnits="userSpaceOnUse" x1="25.765" y1="41.5326" x2="34.8974" y2="41.5326">
		<stop  offset="0" style="stop-color:#838383"/>
		<stop  offset="0.1713" style="stop-color:#888888"/>
		<stop  offset="0.3755" style="stop-color:#969696"/>
		<stop  offset="0.5957" style="stop-color:#AEAEAE"/>
		<stop  offset="0.6899" style="stop-color:#BBBBBB"/>
		<stop  offset="0.867" style="stop-color:#D7D7D7"/>
		<stop  offset="1" style="stop-color:#EEEEEE"/>
	</linearGradient>
	<polygon style="fill:url(#SVGID_00000003082735955399451020000000270474098152607423_);" points="25.8,43.9 34.4,43.9 34.9,39.1 
		26.3,39.1 	"/>
</g>
</svg>
