<?xml version="1.0" encoding="utf-8"?>
<!-- Generator: Adobe Illustrator 28.0.0, SVG Export Plug-In . SVG Version: 6.00 Build 0)  -->
<svg version="1.1" id="图层_1" xmlns="http://www.w3.org/2000/svg" xmlns:xlink="http://www.w3.org/1999/xlink" x="0px" y="0px"
	 viewBox="0 0 512 512" style="enable-background:new 0 0 512 512;" xml:space="preserve">
<style type="text/css">
	.st0{fill:#033D5D;fill-opacity:0;}
	.st1{fill:#2F2F2F;}
	.st2{fill:url(#SVGID_1_);}
	.st3{fill:url(#SVGID_00000170250101527999483310000003229849085136282297_);}
	.st4{fill:url(#SVGID_00000072983259940667142270000017400350520834158761_);}
	.st5{fill:none;}
	.st6{fill:url(#SVGID_00000083805219605198917170000002260856078768227993_);}
</style>
<rect x="-0.7" y="-0.7" class="st0" width="514.5" height="513.8"/>
<g>
	<polygon class="st1" points="126.1,245.5 76.5,245.5 82.2,191.2 46,191.2 31,333.9 67.2,333.9 73.4,275.2 123,275.2 	"/>
	<polygon class="st1" points="318.9,191.2 292.5,228 274.3,191.2 234,191.2 268.6,261.3 216.6,333.9 255.3,333.9 284.4,293.1 
		308.2,259.8 357.1,191.2 	"/>
	<polygon class="st1" points="357.1,191.2 354.2,219.6 394.9,219.6 382.8,333.9 419.1,333.9 434.1,191.2 	"/>
	<linearGradient id="SVGID_1_" gradientUnits="userSpaceOnUse" x1="437.1185" y1="205.3975" x2="481" y2="205.3975">
		<stop  offset="0" style="stop-color:#838383"/>
		<stop  offset="0.1713" style="stop-color:#888888"/>
		<stop  offset="0.3755" style="stop-color:#969696"/>
		<stop  offset="0.5957" style="stop-color:#AEAEAE"/>
		<stop  offset="0.6899" style="stop-color:#BBBBBB"/>
		<stop  offset="0.867" style="stop-color:#D7D7D7"/>
		<stop  offset="1" style="stop-color:#EEEEEE"/>
	</linearGradient>
	<polygon class="st2" points="440.1,191.2 437.1,219.6 478,219.6 481,191.2 	"/>
	<g>
		
			<linearGradient id="SVGID_00000146483517279805914650000016248494559302292379_" gradientUnits="userSpaceOnUse" x1="287.8979" y1="300.4061" x2="344.7764" y2="300.4061">
			<stop  offset="0" style="stop-color:#838383"/>
			<stop  offset="0.1713" style="stop-color:#888888"/>
			<stop  offset="0.3755" style="stop-color:#969696"/>
			<stop  offset="0.5957" style="stop-color:#AEAEAE"/>
			<stop  offset="0.6899" style="stop-color:#BBBBBB"/>
			<stop  offset="0.867" style="stop-color:#D7D7D7"/>
			<stop  offset="1" style="stop-color:#EEEEEE"/>
		</linearGradient>
		<polygon style="fill:url(#SVGID_00000146483517279805914650000016248494559302292379_);" points="311.7,266.9 287.9,300.3 
			304.5,333.9 344.8,333.9 		"/>
	</g>
	
		<linearGradient id="SVGID_00000077318765177160299540000006096863894629393041_" gradientUnits="userSpaceOnUse" x1="52.6032" y1="367.4922" x2="373.7474" y2="367.4922">
		<stop  offset="0" style="stop-color:#838383"/>
		<stop  offset="0.1713" style="stop-color:#888888"/>
		<stop  offset="0.3755" style="stop-color:#969696"/>
		<stop  offset="0.5957" style="stop-color:#AEAEAE"/>
		<stop  offset="0.6899" style="stop-color:#BBBBBB"/>
		<stop  offset="0.867" style="stop-color:#D7D7D7"/>
		<stop  offset="1" style="stop-color:#EEEEEE"/>
	</linearGradient>
	<path style="fill:url(#SVGID_00000077318765177160299540000006096863894629393041_);" d="M372.8,342.9l0.4-4
		c-27.5,16.3-57.9,28.1-87.5,36.1c-63.6,16.2-139.5,19.1-197.3-15.9c-7.3-4.6-14.1-10-20.1-16.2H52.6c15.6,19.9,38.8,33.4,62.4,41.4
		c76.1,25,166.4,7.5,236.3-28.5c7.6-4,15.1-8.3,22.4-12.9H372.8z"/>
	<path class="st1" d="M90.3,201.1c35.7-34.5,84.7-56.8,131.3-69.5c63.6-16.3,139.6-19.4,197.6,15.5c13.9,8.7,26.2,20.6,34.1,35h1.4
		c-18.4-35.1-60.4-53.3-98.2-60.9c-85.3-16.4-184.7,5.6-255,56.7c-3.2,2.4-6.4,4.9-9.5,7.4L90.3,201.1z"/>
	<path class="st1" d="M461.7,228.6c-1.6,12.4-5.8,24.6-11.7,35.5c-5,8.8-10.7,17.1-17.1,24.9l-0.4,3.9c5.4-6.5,10.3-13.3,14.8-20.6
		c8.1-13.2,14-28.3,15.8-43.8H461.7z"/>
	<polygon class="st5" points="159.1,333.9 164.8,279.4 164.8,279.4 	"/>
	<polygon class="st1" points="231.1,219.6 234,191.2 137.9,191.2 122.9,333.9 159.1,333.9 164.8,279.4 164.8,279.4 171.1,219.6 	"/>
	
		<linearGradient id="SVGID_00000079479625115217377900000005358026982167398077_" gradientUnits="userSpaceOnUse" x1="170.8578" y1="265.1345" x2="225.2889" y2="265.1345">
		<stop  offset="0" style="stop-color:#838383"/>
		<stop  offset="0.1713" style="stop-color:#888888"/>
		<stop  offset="0.3755" style="stop-color:#969696"/>
		<stop  offset="0.5957" style="stop-color:#AEAEAE"/>
		<stop  offset="0.6899" style="stop-color:#BBBBBB"/>
		<stop  offset="0.867" style="stop-color:#D7D7D7"/>
		<stop  offset="1" style="stop-color:#EEEEEE"/>
	</linearGradient>
	<polygon style="fill:url(#SVGID_00000079479625115217377900000005358026982167398077_);" points="170.9,279.4 222.3,279.4 
		225.3,250.8 173.9,250.8 	"/>
</g>
</svg>
