<?xml version="1.0" encoding="utf-8"?>
<!-- Generator: Adobe Illustrator 28.0.0, SVG Export Plug-In . SVG Version: 6.00 Build 0)  -->
<svg version="1.1" id="图层_1" xmlns="http://www.w3.org/2000/svg" xmlns:xlink="http://www.w3.org/1999/xlink" x="0px" y="0px"
	 viewBox="0 0 48 48" style="enable-background:new 0 0 48 48;" xml:space="preserve">
<style type="text/css">
	.st0{fill:#193355;}
	.st1{fill:url(#SVGID_1_);}
	.st2{fill:url(#SVGID_00000083090462625734483220000005538374651442686395_);}
	.st3{fill:url(#SVGID_00000080208741098686572710000017449426124690058159_);}
	.st4{fill:none;}
	.st5{fill:url(#SVGID_00000059996435384888113900000016437085109456856250_);}
</style>
<g>
	<polygon class="st0" points="10.4,22.9 5.3,22.9 5.9,17.2 2.1,17.2 0.5,32.1 4.3,32.1 4.9,26 10.1,26 	"/>
	<polygon class="st0" points="30.6,17.2 27.8,21.1 25.9,17.2 21.7,17.2 25.3,24.6 19.9,32.1 23.9,32.1 27,27.9 29.5,24.4 34.6,17.2 
			"/>
	<polygon class="st0" points="34.6,17.2 34.3,20.2 38.5,20.2 37.2,32.1 41,32.1 42.6,17.2 	"/>
	<linearGradient id="SVGID_1_" gradientUnits="userSpaceOnUse" x1="42.9168" y1="18.7149" x2="47.5" y2="18.7149">
		<stop  offset="0" style="stop-color:#1F9FFD"/>
		<stop  offset="0.132" style="stop-color:#24A2FD"/>
		<stop  offset="0.2894" style="stop-color:#33AAFD"/>
		<stop  offset="0.4598" style="stop-color:#4BB8FD"/>
		<stop  offset="0.6382" style="stop-color:#6CCBFE"/>
		<stop  offset="0.6899" style="stop-color:#77D1FE"/>
		<stop  offset="0.8087" style="stop-color:#93E1FE"/>
		<stop  offset="1" style="stop-color:#C7FFFF"/>
	</linearGradient>
	<polygon class="st1" points="43.2,17.2 42.9,20.2 47.2,20.2 47.5,17.2 	"/>
	<g>
		
			<linearGradient id="SVGID_00000181792957516227997680000016589202346525069212_" gradientUnits="userSpaceOnUse" x1="27.3316" y1="28.638" x2="33.2722" y2="28.638">
			<stop  offset="0" style="stop-color:#1F9FFD"/>
			<stop  offset="0.132" style="stop-color:#24A2FD"/>
			<stop  offset="0.2894" style="stop-color:#33AAFD"/>
			<stop  offset="0.4598" style="stop-color:#4BB8FD"/>
			<stop  offset="0.6382" style="stop-color:#6CCBFE"/>
			<stop  offset="0.6899" style="stop-color:#77D1FE"/>
			<stop  offset="0.8087" style="stop-color:#93E1FE"/>
			<stop  offset="1" style="stop-color:#C7FFFF"/>
		</linearGradient>
		<polygon style="fill:url(#SVGID_00000181792957516227997680000016589202346525069212_);" points="29.8,25.1 27.3,28.6 29.1,32.1 
			33.3,32.1 		"/>
	</g>
	
		<linearGradient id="SVGID_00000121981141654653281100000017411679898048510130_" gradientUnits="userSpaceOnUse" x1="2.7563" y1="35.6447" x2="36.2981" y2="35.6447">
		<stop  offset="0" style="stop-color:#1F9FFD"/>
		<stop  offset="0.132" style="stop-color:#24A2FD"/>
		<stop  offset="0.2894" style="stop-color:#33AAFD"/>
		<stop  offset="0.4598" style="stop-color:#4BB8FD"/>
		<stop  offset="0.6382" style="stop-color:#6CCBFE"/>
		<stop  offset="0.6899" style="stop-color:#77D1FE"/>
		<stop  offset="0.8087" style="stop-color:#93E1FE"/>
		<stop  offset="1" style="stop-color:#C7FFFF"/>
	</linearGradient>
	<path style="fill:url(#SVGID_00000121981141654653281100000017411679898048510130_);" d="M36.2,33.1l0-0.4c-2.9,1.7-6,2.9-9.1,3.8
		c-6.6,1.7-14.6,2-20.6-1.7c-0.8-0.5-1.5-1-2.1-1.7H2.8c1.6,2.1,4.1,3.5,6.5,4.3c7.9,2.6,17.4,0.8,24.7-3
		C34.7,34,35.5,33.6,36.2,33.1L36.2,33.1z"/>
	<path class="st0" d="M6.7,18.3c3.7-3.6,8.8-5.9,13.7-7.3C27,9.3,35,9,41,12.6c1.5,0.9,2.7,2.2,3.6,3.7h0.1
		c-1.9-3.7-6.3-5.6-10.3-6.4c-8.9-1.7-19.3,0.6-26.6,5.9c-0.3,0.3-0.7,0.5-1,0.8L6.7,18.3z"/>
	<path class="st0" d="M45.5,21.1c-0.2,1.3-0.6,2.6-1.2,3.7c-0.5,0.9-1.1,1.8-1.8,2.6l0,0.4c0.6-0.7,1.1-1.4,1.5-2.1
		c0.8-1.4,1.5-3,1.7-4.6H45.5z"/>
	<polygon class="st4" points="13.9,32.1 14.5,26.4 14.5,26.4 	"/>
	<polygon class="st0" points="21.4,20.2 21.7,17.2 11.7,17.2 10.1,32.1 13.9,32.1 14.5,26.4 14.5,26.4 15.1,20.2 	"/>
	
		<linearGradient id="SVGID_00000119838694808047438380000000088170540960836796_" gradientUnits="userSpaceOnUse" x1="15.1074" y1="24.954" x2="20.7924" y2="24.954">
		<stop  offset="0" style="stop-color:#1F9FFD"/>
		<stop  offset="0.132" style="stop-color:#24A2FD"/>
		<stop  offset="0.2894" style="stop-color:#33AAFD"/>
		<stop  offset="0.4598" style="stop-color:#4BB8FD"/>
		<stop  offset="0.6382" style="stop-color:#6CCBFE"/>
		<stop  offset="0.6899" style="stop-color:#77D1FE"/>
		<stop  offset="0.8087" style="stop-color:#93E1FE"/>
		<stop  offset="1" style="stop-color:#C7FFFF"/>
	</linearGradient>
	<polygon style="fill:url(#SVGID_00000119838694808047438380000000088170540960836796_);" points="15.1,26.4 20.5,26.4 20.8,23.5 
		15.4,23.5 	"/>
</g>
</svg>
