<?xml version="1.0" encoding="utf-8"?>
<!-- Generator: Adobe Illustrator 28.0.0, SVG Export Plug-In . SVG Version: 6.00 Build 0)  -->
<svg version="1.1" id="图层_1" xmlns="http://www.w3.org/2000/svg" xmlns:xlink="http://www.w3.org/1999/xlink" x="0px" y="0px"
	 viewBox="0 0 512 512" style="enable-background:new 0 0 512 512;" xml:space="preserve">
<style type="text/css">
	.st0{fill:#033D5D;}
	.st1{fill:#FFFFFF;}
	.st2{fill:url(#SVGID_1_);}
	.st3{fill:url(#SVGID_00000154398950205934898880000016263069532719599503_);}
	.st4{fill:url(#SVGID_00000164493393842051218490000006382845874107734147_);}
	.st5{fill:none;}
	.st6{fill:url(#SVGID_00000088120350667684768270000017542495271921307573_);}
</style>
<rect x="-0.7" y="-0.7" class="st0" width="514.5" height="513.8"/>
<g>
	<polygon class="st1" points="128.4,245.7 79.7,245.7 85.3,192.4 49.7,192.4 35,332.5 70.6,332.5 76.7,274.9 125.4,274.9 	"/>
	<polygon class="st1" points="317.8,192.4 291.9,228.5 274,192.4 234.4,192.4 268.4,261.2 217.3,332.5 255.3,332.5 283.9,292.5 
		307.3,259.7 355.3,192.4 	"/>
	<polygon class="st1" points="355.3,192.4 352.4,220.2 392.4,220.2 380.6,332.5 416.2,332.5 430.9,192.4 	"/>
	<linearGradient id="SVGID_1_" gradientUnits="userSpaceOnUse" x1="433.8986" y1="206.2971" x2="477" y2="206.2971">
		<stop  offset="0" style="stop-color:#1F9FFD"/>
		<stop  offset="0.132" style="stop-color:#24A2FD"/>
		<stop  offset="0.2894" style="stop-color:#33AAFD"/>
		<stop  offset="0.4598" style="stop-color:#4BB8FD"/>
		<stop  offset="0.6382" style="stop-color:#6CCBFE"/>
		<stop  offset="0.6899" style="stop-color:#77D1FE"/>
		<stop  offset="0.8087" style="stop-color:#93E1FE"/>
		<stop  offset="1" style="stop-color:#C7FFFF"/>
	</linearGradient>
	<polygon class="st2" points="436.8,192.4 433.9,220.2 474.1,220.2 477,192.4 	"/>
	<g>
		
			<linearGradient id="SVGID_00000042696181624984860330000013133872866506243508_" gradientUnits="userSpaceOnUse" x1="287.3308" y1="299.6166" x2="343.1981" y2="299.6166">
			<stop  offset="0" style="stop-color:#1F9FFD"/>
			<stop  offset="0.132" style="stop-color:#24A2FD"/>
			<stop  offset="0.2894" style="stop-color:#33AAFD"/>
			<stop  offset="0.4598" style="stop-color:#4BB8FD"/>
			<stop  offset="0.6382" style="stop-color:#6CCBFE"/>
			<stop  offset="0.6899" style="stop-color:#77D1FE"/>
			<stop  offset="0.8087" style="stop-color:#93E1FE"/>
			<stop  offset="1" style="stop-color:#C7FFFF"/>
		</linearGradient>
		<polygon style="fill:url(#SVGID_00000042696181624984860330000013133872866506243508_);" points="310.7,266.7 287.3,299.5 
			303.6,332.5 343.2,332.5 		"/>
	</g>
	
		<linearGradient id="SVGID_00000093873313118755923960000018107235253665479071_" gradientUnits="userSpaceOnUse" x1="56.2191" y1="365.5101" x2="371.6541" y2="365.5101">
		<stop  offset="0" style="stop-color:#1F9FFD"/>
		<stop  offset="0.132" style="stop-color:#24A2FD"/>
		<stop  offset="0.2894" style="stop-color:#33AAFD"/>
		<stop  offset="0.4598" style="stop-color:#4BB8FD"/>
		<stop  offset="0.6382" style="stop-color:#6CCBFE"/>
		<stop  offset="0.6899" style="stop-color:#77D1FE"/>
		<stop  offset="0.8087" style="stop-color:#93E1FE"/>
		<stop  offset="1" style="stop-color:#C7FFFF"/>
	</linearGradient>
	<path style="fill:url(#SVGID_00000093873313118755923960000018107235253665479071_);" d="M370.7,341.4l0.4-3.9
		c-27,16-56.9,27.6-85.9,35.5c-62.4,15.9-137,18.8-193.8-15.6c-7.1-4.5-13.8-9.8-19.7-16H56.2c15.3,19.5,38.2,32.8,61.3,40.6
		c74.7,24.6,163.5,7.4,232.1-28c7.5-3.9,14.8-8.1,22-12.6H370.7z"/>
	<path class="st1" d="M93.2,202.1c35.1-33.9,83.2-55.7,129-68.2c62.5-16.1,137.1-19.1,194,15.2c13.7,8.5,25.7,20.2,33.5,34.4h1.4
		c-18-34.5-59.3-52.4-96.4-59.8c-83.7-16.1-181.4,5.5-250.5,55.7c-3.2,2.4-6.3,4.8-9.3,7.3L93.2,202.1z"/>
	<path class="st1" d="M458.1,229.1c-1.5,12.2-5.7,24.1-11.5,34.9c-4.9,8.7-10.5,16.8-16.8,24.4l-0.4,3.8
		c5.3-6.4,10.1-13.1,14.5-20.2c8-13,13.7-27.8,15.5-43H458.1z"/>
	<polygon class="st5" points="160.8,332.5 166.5,279 166.5,279 	"/>
	<polygon class="st1" points="231.5,220.2 234.4,192.4 140,192.4 125.2,332.5 160.8,332.5 166.5,279 166.5,279 172.6,220.2 	"/>
	
		<linearGradient id="SVGID_00000061436462311195640650000013195136051806044071_" gradientUnits="userSpaceOnUse" x1="172.3714" y1="264.9721" x2="225.8349" y2="264.9721">
		<stop  offset="0" style="stop-color:#1F9FFD"/>
		<stop  offset="0.132" style="stop-color:#24A2FD"/>
		<stop  offset="0.2894" style="stop-color:#33AAFD"/>
		<stop  offset="0.4598" style="stop-color:#4BB8FD"/>
		<stop  offset="0.6382" style="stop-color:#6CCBFE"/>
		<stop  offset="0.6899" style="stop-color:#77D1FE"/>
		<stop  offset="0.8087" style="stop-color:#93E1FE"/>
		<stop  offset="1" style="stop-color:#C7FFFF"/>
	</linearGradient>
	<polygon style="fill:url(#SVGID_00000061436462311195640650000013195136051806044071_);" points="172.4,279 222.9,279 225.8,250.9 
		175.3,250.9 	"/>
</g>
</svg>
